{
  "accessors": [
    {
      "bufferView": 2,
      "componentType": 5126,
      "count": 314,
      "max": [
        0.15755420923233032,
        0.45202404260635376,
        0.8370344638824463
      ],
      "min": [
        -0.15542742609977722,
        -0.40559887886047363,
        -1.1579303741455078
      ],
      "type": "VEC3"
    },
    {
      "bufferView": 2,
      "byteOffset": 3768,
      "componentType": 5126,
      "count": 314,
      "type": "VEC3"
    },
    {
      "bufferView": 1,
      "componentType": 5126,
      "count": 314,
      "type": "VEC2"
    },
    {
      "bufferView": 4,
      "componentType": 5123,
      "count": 314,
      "type": "VEC4"
    },
    {
      "bufferView": 3,
      "componentType": 5126,
      "count": 314,
      "type": "VEC4"
    },
    {
      "bufferView": 0,
      "componentType": 5125,
      "count": 1602,
      "type": "SCALAR"
    },
    {
      "bufferView": 5,
      "componentType": 5126,
      "count": 4,
      "type": "MAT4"
    },
    {
      "bufferView": 8,
      "componentType": 5126,
      "count": 39,
      "max": [
        1.7083333730697632
      ],
      "min": [
        0.0416666679084301
      ],
      "type": "SCALAR"
    },
    {
      "bufferView": 7,
      "componentType": 5126,
      "count": 39,
      "type": "VEC4"
    },
    {
      "bufferView": 8,
      "byteOffset": 156,
      "componentType": 5126,
      "count": 36,
      "max": [
        1.7083333730697632
      ],
      "min": [
        0.0416666679084301
      ],
      "type": "SCALAR"
    },
    {
      "bufferView": 6,
      "componentType": 5126,
      "count": 36,
      "type": "VEC3"
    },
    {
      "bufferView": 8,
      "byteOffset": 300,
      "componentType": 5126,
      "count": 40,
      "max": [
        1.7083333730697632
      ],
      "min": [
        0.0416666679084301
      ],
      "type": "SCALAR"
    },
    {
      "bufferView": 7,
      "byteOffset": 624,
      "componentType": 5126,
      "count": 40,
      "type": "VEC4"
    },
    {
      "bufferView": 8,
      "byteOffset": 460,
      "componentType": 5126,
      "count": 23,
      "max": [
        1.7083333730697632
      ],
      "min": [
        0.0416666679084301
      ],
      "type": "SCALAR"
    },
    {
      "bufferView": 6,
      "byteOffset": 432,
      "componentType": 5126,
      "count": 23,
      "type": "VEC3"
    },
    {
      "bufferView": 8,
      "byteOffset": 552,
      "componentType": 5126,
      "count": 40,
      "max": [
        1.7083333730697632
      ],
      "min": [
        0.0416666679084301
      ],
      "type": "SCALAR"
    },
    {
      "bufferView": 6,
      "byteOffset": 708,
      "componentType": 5126,
      "count": 40,
      "type": "VEC3"
    },
    {
      "bufferView": 8,
      "byteOffset": 712,
      "componentType": 5126,
      "count": 41,
      "max": [
        1.7083333730697632
      ],
      "min": [
        0.0416666679084301
      ],
      "type": "SCALAR"
    },
    {
      "bufferView": 7,
      "byteOffset": 1264,
      "componentType": 5126,
      "count": 41,
      "type": "VEC4"
    },
    {
      "bufferView": 8,
      "byteOffset": 876,
      "componentType": 5126,
      "count": 38,
      "max": [
        1.7083333730697632
      ],
      "min": [
        0.0416666679084301
      ],
      "type": "SCALAR"
    },
    {
      "bufferView": 6,
      "byteOffset": 1188,
      "componentType": 5126,
      "count": 38,
      "type": "VEC3"
    },
    {
      "bufferView": 8,
      "byteOffset": 1028,
      "componentType": 5126,
      "count": 41,
      "max": [
        1.7083333730697632
      ],
      "min": [
        0.0416666679084301
      ],
      "type": "SCALAR"
    },
    {
      "bufferView": 6,
      "byteOffset": 1644,
      "componentType": 5126,
      "count": 41,
      "type": "VEC3"
    },
    {
      "bufferView": 8,
      "byteOffset": 1192,
      "componentType": 5126,
      "count": 41,
      "max": [
        1.7083333730697632
      ],
      "min": [
        0.0416666679084301
      ],
      "type": "SCALAR"
    },
    {
      "bufferView": 7,
      "byteOffset": 1920,
      "componentType": 5126,
      "count": 41,
      "type": "VEC4"
    },
    {
      "bufferView": 8,
      "byteOffset": 1356,
      "componentType": 5126,
      "count": 40,
      "max": [
        1.7083333730697632
      ],
      "min": [
        0.0416666679084301
      ],
      "type": "SCALAR"
    },
    {
      "bufferView": 6,
      "byteOffset": 2136,
      "componentType": 5126,
      "count": 40,
      "type": "VEC3"
    },
    {
      "bufferView": 8,
      "byteOffset": 1516,
      "componentType": 5126,
      "count": 38,
      "max": [
        1.625
      ],
      "min": [
        0.0833333358168602
      ],
      "type": "SCALAR"
    },
    {
      "bufferView": 7,
      "byteOffset": 2576,
      "componentType": 5126,
      "count": 38,
      "type": "VEC4"
    }
  ],
  "animations": [
    {
      "channels": [
        {
          "sampler": 0,
          "target": {
            "node": 7,
            "path": "rotation"
          }
        },
        {
          "sampler": 1,
          "target": {
            "node": 7,
            "path": "scale"
          }
        },
        {
          "sampler": 2,
          "target": {
            "node": 8,
            "path": "rotation"
          }
        },
        {
          "sampler": 3,
          "target": {
            "node": 8,
            "path": "scale"
          }
        },
        {
          "sampler": 4,
          "target": {
            "node": 9,
            "path": "translation"
          }
        },
        {
          "sampler": 5,
          "target": {
            "node": 9,
            "path": "rotation"
          }
        },
        {
          "sampler": 6,
          "target": {
            "node": 9,
            "path": "scale"
          }
        },
        {
          "sampler": 7,
          "target": {
            "node": 10,
            "path": "translation"
          }
        },
        {
          "sampler": 8,
          "target": {
            "node": 10,
            "path": "rotation"
          }
        },
        {
          "sampler": 9,
          "target": {
            "node": 10,
            "path": "scale"
          }
        },
        {
          "sampler": 10,
          "target": {
            "node": 3,
            "path": "rotation"
          }
        }
      ],
      "name": "ArmatureAction",
      "samplers": [
        {
          "input": 7,
          "interpolation": "LINEAR",
          "output": 8
        },
        {
          "input": 9,
          "interpolation": "LINEAR",
          "output": 10
        },
        {
          "input": 11,
          "interpolation": "LINEAR",
          "output": 12
        },
        {
          "input": 13,
          "interpolation": "LINEAR",
          "output": 14
        },
        {
          "input": 15,
          "interpolation": "LINEAR",
          "output": 16
        },
        {
          "input": 17,
          "interpolation": "LINEAR",
          "output": 18
        },
        {
          "input": 19,
          "interpolation": "LINEAR",
          "output": 20
        },
        {
          "input": 21,
          "interpolation": "LINEAR",
          "output": 22
        },
        {
          "input": 23,
          "interpolation": "LINEAR",
          "output": 24
        },
        {
          "input": 25,
          "interpolation": "LINEAR",
          "output": 26
        },
        {
          "input": 27,
          "interpolation": "LINEAR",
          "output": 28
        }
      ]
    }
  ],
  "asset": {
    "generator": "fab-model-conversion",
    "version": "2.0"
  },
  "bufferViews": [
    {
      "buffer": 0,
      "byteLength": 6408,
      "target": 34963
    },
    {
      "buffer": 0,
      "byteLength": 2512,
      "byteOffset": 6408,
      "byteStride": 8,
      "target": 34962
    },
    {
      "buffer": 0,
      "byteLength": 7536,
      "byteOffset": 8920,
      "byteStride": 12,
      "target": 34962
    },
    {
      "buffer": 0,
      "byteLength": 5024,
      "byteOffset": 16456,
      "byteStride": 16,
      "target": 34962
    },
    {
      "buffer": 0,
      "byteLength": 2512,
      "byteOffset": 21480,
      "byteStride": 8,
      "target": 34962
    },
    {
      "buffer": 0,
      "byteLength": 256,
      "byteOffset": 23992
    },
    {
      "buffer": 0,
      "byteLength": 2616,
      "byteOffset": 24248
    },
    {
      "buffer": 0,
      "byteLength": 3184,
      "byteOffset": 26864
    },
    {
      "buffer": 0,
      "byteLength": 1668,
      "byteOffset": 30048
    }
  ],
  "buffers": [
    {
      "byteLength": 31716,
      "uri": "scene.bin"
    }
  ],
  "images": [
    {
      "uri": "textures/Material.006_baseColor.jpeg"
    }
  ],
  "materials": [
    {
      "doubleSided": true,
      "name": "Material.006",
      "pbrMetallicRoughness": {
        "baseColorTexture": {
          "index": 0
        },
        "metallicFactor": 0.0
      }
    }
  ],
  "meshes": [
    {
      "name": "Object_0",
      "primitives": [
        {
          "attributes": {
            "JOINTS_0": 3,
            "NORMAL": 1,
            "POSITION": 0,
            "TEXCOORD_0": 2,
            "WEIGHTS_0": 4
          },
          "indices": 5,
          "material": 0,
          "mode": 4
        }
      ]
    }
  ],
  "nodes": [
    {
      "children": [
        1,
        6
      ],
      "matrix": [
        1.0,
        0.0,
        0.0,
        0.0,
        0.0,
        2.220446049250313e-16,
        -1.0,
        0.0,
        0.0,
        1.0,
        2.220446049250313e-16,
        0.0,
        0.0,
        0.0,
        0.0,
        1.0
      ],
      "name": "Sketchfab_model"
    },
    {
      "children": [
        2
      ],
      "name": "root"
    },
    {
      "children": [
        3
      ],
      "matrix": [
        1.0,
        0.0,
        0.0,
        0.0,
        0.0,
        2.220446049250313e-16,
        1.0,
        0.0,
        0.0,
        -1.0,
        2.220446049250313e-16,
        0.0,
        0.0,
        0.0,
        0.0,
        1.0
      ],
      "name": "GLTF_SceneRootNode"
    },
    {
      "children": [
        4
      ],
      "name": "Armature_7",
      "rotation": [
        0.7232950925827026,
        0.0,
        0.0,
        0.6905390620231628
      ],
      "scale": [
        0.5646278262138367,
        0.5646278858184814,
        0.5646278858184814
      ],
      "translation": [
        0.0,
        0.05819633603096008,
        0.2636736035346985
      ]
    },
    {
      "children": [
        5,
        7,
        8
      ],
      "name": "GLTF_created_0"
    },
    {
      "name": "Plane.040_6"
    },
    {
      "mesh": 0,
      "name": "Object_6",
      "skin": 0
    },
    {
      "name": "Bone_2",
      "rotation": [
        0.0,
        0.0,
        0.0,
        1.0
      ],
      "scale": [
        1.0,
        1.0,
        1.0
      ],
      "translation": [
        0.0,
        0.0,
        0.0
      ]
    },
    {
      "children": [
        9
      ],
      "name": "Bone.001_5",
      "rotation": [
        1.148073238255165e-06,
        0.02316199615597725,
        0.999731719493866,
        2.6598794278243076e-08
      ],
      "scale": [
        1.0,
        0.9999997019767761,
        0.9999999403953552
      ],
      "translation": [
        -1.9142470594757377e-11,
        3.2882860930699698e-12,
        -1.5276671529347585e-13
      ]
    },
    {
      "children": [
        10
      ],
      "name": "Bone.002_4",
      "rotation": [
        -0.0015527874929830432,
        -1.116894391643003e-13,
        3.56638518717034e-09,
        0.9999988079071045
      ],
      "scale": [
        1.0,
        1.0000001192092896,
        1.0
      ],
      "translation": [
        5.329078141497277e-15,
        0.9933686256408691,
        3.026801698169379e-09
      ]
    },
    {
      "name": "Bone.003_3",
      "rotation": [
        0.12774060666561127,
        -2.2029664063002302e-13,
        -2.933898599621898e-07,
        0.9918076395988464
      ],
      "scale": [
        1.0,
        0.9999999403953552,
        0.9999998807907104
      ],
      "translation": [
        -1.4382699912508009e-15,
        0.6805665493011475,
        2.440592972163813e-08
      ]
    }
  ],
  "samplers": [
    {
      "magFilter": 9729,
      "minFilter": 9987,
      "wrapS": 10497,
      "wrapT": 10497
    }
  ],
  "scene": 0,
  "scenes": [
    {
      "name": "Sketchfab_Scene",
      "nodes": [
        0
      ]
    }
  ],
  "skins": [
    {
      "inverseBindMatrices": 6,
      "joints": [
        8,
        7,
        9,
        10
      ]
    }
  ],
  "textures": [
    {
      "sampler": 0,
      "source": 0
    }
  ]
}
